<?xml version="1.0" standalone="no"?>
<!DOCTYPE svg PUBLIC "-//W3C//DTD SVG 20010904//EN"
 "http://www.w3.org/TR/2001/REC-SVG-20010904/DTD/svg10.dtd">
<svg version="1.0" xmlns="http://www.w3.org/2000/svg"
 width="238.000000pt" height="238.000000pt" viewBox="0 0 238.000000 238.000000"
 preserveAspectRatio="xMidYMid meet">
<metadata>
Created by potrace 1.11, written by Peter Selinger 2001-2013
</metadata>
<g transform="translate(0.000000,238.000000) scale(0.100000,-0.100000)"
fill="#000000" stroke="none">
<path d="M596 2343 c-23 -79 -38 -177 -43 -285 l-6 -126 42 -13 c22 -7 41 -16
41 -21 0 -5 -5 -6 -11 -3 -5 4 -24 9 -41 12 -29 4 -30 4 -25 -31 4 -33 3 -35
-44 -56 -27 -11 -49 -24 -49 -29 0 -5 -10 -11 -23 -15 -38 -9 -105 -73 -112
-107 -12 -55 -8 -911 5 -943 12 -32 57 -76 78 -76 6 0 12 -4 12 -9 0 -5 8 -11
18 -14 9 -4 42 -21 72 -39 31 -18 83 -49 118 -68 60 -34 72 -51 62 -95 -1 -5
-4 -49 -5 -97 -3 -64 -1 -86 8 -82 7 2 30 6 52 8 22 2 40 5 40 6 0 1 18 3 40
4 101 7 155 18 148 29 -4 7 0 7 10 -1 9 -8 20 -11 25 -8 6 3 15 -1 22 -9 10
-12 10 -15 -1 -16 -8 -1 -23 -3 -34 -4 -25 -4 -146 -17 -162 -18 -7 0 -13 -1
-13 -1 0 -1 -9 -24 -20 -53 l-20 -52 50 2 c28 1 50 4 50 7 0 3 10 5 23 6 21 0
67 5 197 20 45 5 63 2 91 -14 46 -25 179 -74 179 -65 0 4 5 2 12 -5 7 -7 20
-12 30 -12 10 0 18 -4 18 -9 0 -9 59 -26 125 -37 39 -6 41 7 4 33 -10 7 -27
29 -39 48 -17 28 -20 44 -15 75 5 27 12 40 23 41 24 1 65 9 70 13 2 2 5 12 7
23 2 10 4 19 5 21 2 1 3 6 4 11 0 5 4 13 9 17 4 4 7 13 7 20 0 9 -10 10 -37 3
-50 -11 -50 -11 -50 5 0 14 44 27 112 32 17 1 35 2 42 3 13 1 62 47 64 59 11
93 17 109 51 127 18 9 47 24 63 32 17 9 32 19 35 22 3 3 25 17 49 30 53 29 78
53 92 89 7 17 11 188 11 477 1 399 -1 455 -16 485 -18 40 -5 31 -241 168 -343
198 -313 178 -326 225 -20 75 -61 191 -84 234 l-21 41 -60 -38 c-32 -21 -79
-57 -104 -79 -25 -23 -74 -58 -110 -78 -36 -20 -78 -45 -93 -56 l-28 -19 -34
27 c-19 14 -35 31 -35 37 0 6 -3 9 -6 5 -3 -3 -17 5 -31 19 -13 13 -27 24 -31
24 -4 0 -20 11 -35 25 -15 14 -27 22 -27 18 0 -4 -4 -3 -8 3 -7 11 -69 54
-134 93 -34 20 -37 20 -42 4z m959 -575 c19 -13 33 -27 31 -33 -2 -5 3 -22 10
-37 8 -15 21 -58 29 -95 9 -37 18 -78 20 -90 4 -15 1 -23 -8 -23 -25 0 -46 25
-51 62 -7 43 -54 166 -67 174 -9 5 -13 64 -4 64 3 0 21 -10 40 -22z m175 -169
c0 -5 4 -9 9 -9 10 0 69 -108 88 -160 45 -124 54 -284 22 -407 -30 -119 -92
-226 -182 -315 -42 -43 -81 -78 -85 -78 -5 0 -7 21 -5 46 3 38 -1 52 -18 70
-13 13 -32 24 -43 24 -12 1 -42 20 -68 43 l-47 42 77 -3 c42 -3 79 -7 82 -11
3 -3 16 -7 30 -9 14 -2 36 -5 48 -7 16 -3 32 5 49 23 22 24 25 33 20 81 -3 29
-8 55 -11 58 -5 5 -56 13 -110 16 -24 2 -31 -3 -36 -22 -9 -40 -34 -49 -75
-27 l-35 19 32 23 c17 13 35 21 40 18 20 -12 90 62 94 100 1 12 3 26 3 31 1 6
6 2 12 -7 9 -17 12 -17 50 2 47 24 79 72 79 117 0 17 7 38 15 47 20 19 19 31
-3 53 -11 10 -27 34 -38 53 -10 19 -27 41 -36 50 -13 12 -17 37 -20 117 l-3
103 33 -36 c17 -19 32 -39 32 -45z m-941 11 c46 -27 113 -74 149 -104 67 -55
201 -185 192 -187 -48 -8 -58 -7 -76 9 -23 21 -181 101 -212 107 -12 2 -25 6
-30 8 -4 3 -32 8 -62 12 -30 4 -59 8 -65 8 -6 1 -9 -22 -8 -58 5 -122 28 -187
69 -196 16 -4 21 -7 12 -8 -31 -2 -30 -20 3 -66 26 -36 37 -44 53 -39 12 4 23
9 26 13 3 3 16 12 29 19 22 13 23 12 16 -5 -4 -10 -13 -40 -20 -66 -16 -56
-31 -77 -56 -77 -22 0 -32 -16 -34 -50 -1 -14 -14 -44 -29 -67 -29 -43 -28
-57 6 -81 10 -7 16 -18 13 -23 -4 -5 1 -9 9 -9 9 0 16 -4 16 -10 0 -5 12 -10
26 -10 14 0 34 -4 44 -10 27 -15 94 64 85 100 -3 14 -8 41 -10 60 -3 19 -6 39
-9 46 -10 26 33 90 87 129 31 22 61 50 66 63 6 12 15 22 21 22 13 0 13 -13 -1
-27 -21 -21 -22 -124 -1 -191 l21 -64 -36 -31 c-19 -18 -49 -52 -66 -77 -47
-67 -48 -69 -79 -58 -18 6 -33 6 -47 -2 -12 -6 -21 -7 -21 -3 0 4 -8 -4 -17
-17 -17 -24 -19 -28 -22 -51 -2 -16 -59 28 -129 99 -86 88 -146 198 -180 332
-8 31 -8 236 0 270 32 137 73 219 163 327 5 7 13 12 16 13 3 0 43 -22 88 -50z
m732 0 c5 0 8 -3 7 -7 0 -5 6 -24 15 -43 14 -31 14 -36 0 -43 -8 -5 -17 -6
-20 -3 -3 3 -15 0 -26 -5 -19 -11 -19 -9 -12 47 4 31 10 64 13 73 6 14 7 14
10 -1 2 -10 8 -18 13 -18z m-248 -80 c3 -11 1 -18 -4 -14 -5 3 -9 12 -9 20 0
20 7 17 13 -6z m36 -134 c5 -22 6 -35 2 -30 -9 9 -27 83 -18 74 3 -3 10 -23
16 -44z m-51 -513 c-10 -2 -28 -2 -40 0 -13 2 -5 4 17 4 22 1 32 -1 23 -4z
m92 -8 c11 -13 10 -14 -4 -9 -9 3 -16 10 -16 15 0 13 6 11 20 -6z m153 -765
c19 -48 8 -51 -28 -8 -20 24 -23 33 -13 39 21 14 24 11 41 -31z"/>
</g>
</svg>
